{
  "accessors": [
    {
      "bufferView": 2,
      "componentType": 5126,
      "count": 64004,
      "max": [
        2.187222719192505,
        0.9975767135620117,
        2.187222480773926
      ],
      "min": [
        -2.1872220039367676,
        -0.1841968148946762,
        -2.1872215270996094
      ],
      "type": "VEC3"
    },
    {
      "bufferView": 2,
      "byteOffset": 768048,
      "componentType": 5126,
      "count": 64004,
      "max": [
        0.9999284744262695,
        1.0,
        0.9999285340309143
      ],
      "min": [
        -0.9999284744262695,
        -1.0,
        -0.9999282360076904
      ],
      "type": "VEC3"
    },
    {
      "bufferView": 3,
      "componentType": 5126,
      "count": 64004,
      "max": [
        0.9999522566795349,
        0.9999285936355591,
        0.9998653531074524,
        1.0
      ],
      "min": [
        -0.9999651312828064,
        -0.99992835521698,
        -0.9997372031211853,
        1.0
      ],
      "type": "VEC4"
    },
    {
      "bufferView": 1,
      "componentType": 5126,
      "count": 64004,
      "max": [
        1.5000001192092896,
        1.4999234676361084
      ],
      "min": [
        -0.5,
        -0.49997448921203613
      ],
      "type": "VEC2"
    },
    {
      "bufferView": 1,
      "byteOffset": 512032,
      "componentType": 5126,
      "count": 64004,
      "max": [
        1.5000001192092896,
        1.4999234676361084
      ],
      "min": [
        -0.5,
        -0.49997448921203613
      ],
      "type": "VEC2"
    },
    {
      "bufferView": 0,
      "componentType": 5125,
      "count": 374784,
      "type": "SCALAR"
    },
    {
      "bufferView": 2,
      "byteOffset": 1536096,
      "componentType": 5126,
      "count": 17920,
      "max": [
        1.0258344411849976,
        0.19496019184589386,
        1.0258339643478394
      ],
      "min": [
        -1.0258338451385498,
        0.003346911631524563,
        -1.0258338451385498
      ],
      "type": "VEC3"
    },
    {
      "bufferView": 2,
      "byteOffset": 1751136,
      "componentType": 5126,
      "count": 17920,
      "max": [
        0.9998509883880615,
        0.9993531107902527,
        0.9998510479927063
      ],
      "min": [
        -0.9998509287834167,
        -0.998449444770813,
        -0.9998509287834167
      ],
      "type": "VEC3"
    },
    {
      "bufferView": 3,
      "byteOffset": 1024064,
      "componentType": 5126,
      "count": 17920,
      "max": [
        0.9999058842658997,
        0.9998500943183899,
        0.9999365210533142,
        1.0
      ],
      "min": [
        -0.9992278814315796,
        -0.9998495578765869,
        -0.9999921917915344,
        1.0
      ],
      "type": "VEC4"
    },
    {
      "bufferView": 1,
      "byteOffset": 1024064,
      "componentType": 5126,
      "count": 17920,
      "max": [
        1.0000001192092896,
        0.9999312162399292
      ],
      "min": [
        0.0,
        0.0
      ],
      "type": "VEC2"
    },
    {
      "bufferView": 1,
      "byteOffset": 1167424,
      "componentType": 5126,
      "count": 17920,
      "max": [
        1.0000001192092896,
        0.9999312162399292
      ],
      "min": [
        0.0,
        0.0
      ],
      "type": "VEC2"
    },
    {
      "bufferView": 1,
      "byteOffset": 1310784,
      "componentType": 5126,
      "count": 17920,
      "max": [
        1.0000001192092896,
        0.9999312162399292
      ],
      "min": [
        0.0,
        0.0
      ],
      "type": "VEC2"
    },
    {
      "bufferView": 1,
      "byteOffset": 1454144,
      "componentType": 5126,
      "count": 17920,
      "max": [
        1.0000001192092896,
        0.9999312162399292
      ],
      "min": [
        0.0,
        0.0
      ],
      "type": "VEC2"
    },
    {
      "bufferView": 0,
      "byteOffset": 1499136,
      "componentType": 5125,
      "count": 98304,
      "type": "SCALAR"
    }
  ],
  "asset": {
    "extras": {
      "author": "mzati0 (https://sketchfab.com/mzati0)",
      "license": "CC-BY-4.0 (http://creativecommons.org/licenses/by/4.0/)",
      "source": "https://sketchfab.com/3d-models/luffys-straw-hat-bc872d79faa34693adfe6436bb806c39",
      "title": "Luffy's Straw Hat"
    },
    "generator": "Sketchfab-13.74.0",
    "version": "2.0"
  },
  "bufferViews": [
    {
      "buffer": 0,
      "byteLength": 1892352,
      "name": "floatBufferViews",
      "target": 34963
    },
    {
      "buffer": 0,
      "byteLength": 1597504,
      "byteOffset": 1892352,
      "byteStride": 8,
      "name": "floatBufferViews",
      "target": 34962
    },
    {
      "buffer": 0,
      "byteLength": 1966176,
      "byteOffset": 3489856,
      "byteStride": 12,
      "name": "floatBufferViews",
      "target": 34962
    },
    {
      "buffer": 0,
      "byteLength": 1310784,
      "byteOffset": 5456032,
      "byteStride": 16,
      "name": "floatBufferViews",
      "target": 34962
    }
  ],
  "buffers": [
    {
      "byteLength": 6766816,
      "uri": "scene.bin"
    }
  ],
  "images": [
    {
      "uri": "textures/Straw_Hat_baseColor.png"
    },
    {
      "uri": "textures/Straw_Hat_normal.png"
    },
    {
      "uri": "textures/Strap_metallicRoughness.png"
    },
    {
      "uri": "textures/Strap_normal.png"
    }
  ],
  "materials": [
    {
      "doubleSided": true,
      "name": "Straw_Hat",
      "normalTexture": {
        "index": 1
      },
      "pbrMetallicRoughness": {
        "baseColorTexture": {
          "index": 0
        },
        "metallicFactor": 0.0
      }
    },
    {
      "doubleSided": true,
      "name": "Strap",
      "normalTexture": {
        "index": 3
      },
      "pbrMetallicRoughness": {
        "baseColorFactor": [
          1.0,
          0.0,
          0.0,
          1.0
        ],
        "metallicRoughnessTexture": {
          "index": 2
        }
      }
    }
  ],
  "meshes": [
    {
      "name": "Object_0",
      "primitives": [
        {
          "attributes": {
            "NORMAL": 1,
            "POSITION": 0,
            "TANGENT": 2,
            "TEXCOORD_0": 3,
            "TEXCOORD_1": 4
          },
          "indices": 5,
          "material": 0,
          "mode": 4
        }
      ]
    },
    {
      "name": "Object_1",
      "primitives": [
        {
          "attributes": {
            "NORMAL": 7,
            "POSITION": 6,
            "TANGENT": 8,
            "TEXCOORD_0": 9,
            "TEXCOORD_1": 10,
            "TEXCOORD_2": 11,
            "TEXCOORD_3": 12
          },
          "indices": 13,
          "material": 1,
          "mode": 4
        }
      ]
    }
  ],
  "nodes": [
    {
      "children": [
        1
      ],
      "matrix": [
        1.0,
        0.0,
        0.0,
        0.0,
        0.0,
        2.220446049250313e-16,
        -1.0,
        0.0,
        0.0,
        1.0,
        2.220446049250313e-16,
        0.0,
        0.0,
        0.0,
        0.0,
        1.0
      ],
      "name": "Sketchfab_model"
    },
    {
      "children": [
        2
      ],
      "name": "root"
    },
    {
      "children": [
        3
      ],
      "matrix": [
        1.0,
        0.0,
        0.0,
        0.0,
        0.0,
        2.220446049250313e-16,
        1.0,
        0.0,
        0.0,
        -1.0,
        2.220446049250313e-16,
        0.0,
        0.0,
        0.0,
        0.0,
        1.0
      ],
      "name": "GLTF_SceneRootNode"
    },
    {
      "children": [
        4,
        5
      ],
      "matrix": [
        3.946384906768799,
        0.0,
        0.0,
        0.0,
        0.0,
        3.946384906768799,
        0.0,
        0.0,
        0.0,
        0.0,
        3.946384906768799,
        0.0,
        0.0,
        0.0,
        0.0,
        1.0
      ],
      "name": "LuffyHat_0"
    },
    {
      "mesh": 0,
      "name": "Object_4"
    },
    {
      "mesh": 1,
      "name": "Object_5"
    }
  ],
  "samplers": [
    {
      "magFilter": 9729,
      "minFilter": 9987,
      "wrapS": 10497,
      "wrapT": 10497
    }
  ],
  "scene": 0,
  "scenes": [
    {
      "name": "Sketchfab_Scene",
      "nodes": [
        0
      ]
    }
  ],
  "textures": [
    {
      "sampler": 0,
      "source": 0
    },
    {
      "sampler": 0,
      "source": 1
    },
    {
      "sampler": 0,
      "source": 2
    },
    {
      "sampler": 0,
      "source": 3
    }
  ]
}
