{
  "accessors": [
    {
      "bufferView": 2,
      "componentType": 5126,
      "count": 190,
      "max": [
        770.85302734375,
        546.9390258789063,
        140.15899658203125
      ],
      "min": [
        -11.981499671936035,
        452.54901123046875,
        107.47899627685547
      ],
      "type": "VEC3"
    },
    {
      "bufferView": 2,
      "byteOffset": 2280,
      "componentType": 5126,
      "count": 190,
      "max": [
        1.0,
        0.9907335042953491,
        0.13582006096839905
      ],
      "min": [
        -5.628940086803034e-15,
        -0.9907335042953491,
        -1.0
      ],
      "type": "VEC3"
    },
    {
      "bufferView": 1,
      "componentType": 5126,
      "count": 190,
      "max": [
        555.6900024414063,
        548.0280151367188
      ],
      "min": [
        -940.3560180664063,
        109.1989974975586
      ],
      "type": "VEC2"
    },
    {
      "bufferView": 0,
      "componentType": 5125,
      "count": 462,
      "type": "SCALAR"
    },
    {
      "bufferView": 2,
      "byteOffset": 4560,
      "componentType": 5126,
      "count": 1840,
      "max": [
        769.6649780273438,
        546.8579711914063,
        129.4499969482422
      ],
      "min": [
        -106.69300079345703,
        452.6300048828125,
        115.58999633789063
      ],
      "type": "VEC3"
    },
    {
      "bufferView": 2,
      "byteOffset": 26640,
      "componentType": 5126,
      "count": 1840,
      "max": [
        7.775328774925483e-15,
        0.9914448857307434,
        0.7376897931098938
      ],
      "min": [
        -0.6767719984054565,
        -0.9914448857307434,
        0.13052599132061005
      ],
      "type": "VEC3"
    },
    {
      "bufferView": 1,
      "byteOffset": 1520,
      "componentType": 5126,
      "count": 1840,
      "max": [
        898.4169921875,
        366.7919921875
      ],
      "min": [
        -898.4169921875,
        -240.46099853515625
      ],
      "type": "VEC2"
    },
    {
      "bufferView": 0,
      "byteOffset": 1848,
      "componentType": 5125,
      "count": 4020,
      "type": "SCALAR"
    },
    {
      "bufferView": 2,
      "byteOffset": 48720,
      "componentType": 5126,
      "count": 723,
      "max": [
        770.85302734375,
        545.9530029296875,
        107.47899627685547
      ],
      "min": [
        -128.7519989013672,
        453.5350036621094,
        107.47899627685547
      ],
      "type": "VEC3"
    },
    {
      "bufferView": 2,
      "byteOffset": 57396,
      "componentType": 5126,
      "count": 723,
      "max": [
        7.164943280606878e-15,
        0.9910989999771118,
        1.0
      ],
      "min": [
        -0.9701424241065979,
        -0.9910989999771118,
        0.07421664148569107
      ],
      "type": "VEC3"
    },
    {
      "bufferView": 1,
      "byteOffset": 16240,
      "componentType": 5126,
      "count": 723,
      "max": [
        940.3560180664063,
        554.68798828125
      ],
      "min": [
        26.357099533081055,
        460.7919921875
      ],
      "type": "VEC2"
    },
    {
      "bufferView": 0,
      "byteOffset": 17928,
      "componentType": 5125,
      "count": 1587,
      "type": "SCALAR"
    },
    {
      "bufferView": 2,
      "byteOffset": 66072,
      "componentType": 5126,
      "count": 9264,
      "max": [
        732.4530029296875,
        541.7849731445313,
        134.2899932861328
      ],
      "min": [
        37.01319885253906,
        458.25,
        128.5
      ],
      "type": "VEC3"
    },
    {
      "bufferView": 2,
      "byteOffset": 177240,
      "componentType": 5126,
      "count": 9264,
      "max": [
        1.0,
        1.0,
        1.0
      ],
      "min": [
        -0.9986493587493896,
        -1.0,
        -1.0
      ],
      "type": "VEC3"
    },
    {
      "bufferView": 1,
      "byteOffset": 22024,
      "componentType": 5126,
      "count": 9264,
      "max": [
        15.679900169372559,
        29.60460090637207
      ],
      "min": [
        -15.679900169372559,
        4.310910224914551
      ],
      "type": "VEC2"
    },
    {
      "bufferView": 0,
      "byteOffset": 24276,
      "componentType": 5125,
      "count": 19080,
      "type": "SCALAR"
    },
    {
      "bufferView": 2,
      "byteOffset": 288408,
      "componentType": 5126,
      "count": 7282,
      "max": [
        732.3740234375,
        680.4970092773438,
        132.98899841308594
      ],
      "min": [
        -80.20030212402344,
        318.9909973144531,
        32.25859832763672
      ],
      "type": "VEC3"
    },
    {
      "bufferView": 2,
      "byteOffset": 375792,
      "componentType": 5126,
      "count": 7282,
      "max": [
        1.0,
        1.0,
        1.0
      ],
      "min": [
        -1.0,
        -1.0,
        -1.0
      ],
      "type": "VEC3"
    },
    {
      "bufferView": 1,
      "byteOffset": 96136,
      "componentType": 5126,
      "count": 7282,
      "max": [
        60.85210037231445,
        58.68519973754883
      ],
      "min": [
        -60.85210037231445,
        -6.523499965667725
      ],
      "type": "VEC2"
    },
    {
      "bufferView": 0,
      "byteOffset": 100596,
      "componentType": 5125,
      "count": 13524,
      "type": "SCALAR"
    },
    {
      "bufferView": 2,
      "byteOffset": 463176,
      "componentType": 5126,
      "count": 940,
      "max": [
        922.7930297851563,
        539.3369750976563,
        232.77499389648438
      ],
      "min": [
        41.34939956665039,
        460.1510009765625,
        140.23699951171875
      ],
      "type": "VEC3"
    },
    {
      "bufferView": 2,
      "byteOffset": 474456,
      "componentType": 5126,
      "count": 940,
      "max": [
        0.06353382021188736,
        0.9999744892120361,
        0.9238797426223755
      ],
      "min": [
        -0.058606091886758804,
        -0.9998412132263184,
        -0.03722968325018883
      ],
      "type": "VEC3"
    },
    {
      "bufferView": 1,
      "byteOffset": 154392,
      "componentType": 5126,
      "count": 940,
      "max": [
        162.74600219726563,
        87.83180236816406
      ],
      "min": [
        -162.4550018310547,
        -10.168800354003906
      ],
      "type": "VEC2"
    },
    {
      "bufferView": 0,
      "byteOffset": 154692,
      "componentType": 5125,
      "count": 2214,
      "type": "SCALAR"
    },
    {
      "bufferView": 2,
      "byteOffset": 485736,
      "componentType": 5126,
      "count": 8611,
      "max": [
        975.7769775390625,
        689.3569946289063,
        282.7650146484375
      ],
      "min": [
        -128.7519989013672,
        310.1310119628906,
        46.338600158691406
      ],
      "type": "VEC3"
    },
    {
      "bufferView": 2,
      "byteOffset": 589068,
      "componentType": 5126,
      "count": 8611,
      "max": [
        1.0,
        1.0,
        0.9999257326126099
      ],
      "min": [
        -0.9701424241065979,
        -1.0,
        -1.0
      ],
      "type": "VEC3"
    },
    {
      "bufferView": 1,
      "byteOffset": 161912,
      "componentType": 5126,
      "count": 8611,
      "max": [
        1195.699951171875,
        1166.030029296875
      ],
      "min": [
        -994.1539916992188,
        -1038.93994140625
      ],
      "type": "VEC2"
    },
    {
      "bufferView": 0,
      "byteOffset": 163548,
      "componentType": 5125,
      "count": 15771,
      "type": "SCALAR"
    },
    {
      "bufferView": 2,
      "byteOffset": 692400,
      "componentType": 5126,
      "count": 7608,
      "max": [
        732.3740234375,
        542.0560302734375,
        134.2899932861328
      ],
      "min": [
        23.239599227905273,
        457.4939880371094,
        107.47899627685547
      ],
      "type": "VEC3"
    },
    {
      "bufferView": 2,
      "byteOffset": 783696,
      "componentType": 5126,
      "count": 7608,
      "max": [
        1.0,
        1.0,
        1.0
      ],
      "min": [
        -1.0,
        -1.0,
        -1.0
      ],
      "type": "VEC3"
    },
    {
      "bufferView": 1,
      "byteOffset": 230800,
      "componentType": 5126,
      "count": 7608,
      "max": [
        17.117300033569336,
        29.60460090637207
      ],
      "min": [
        -15.601200103759766,
        0.0
      ],
      "type": "VEC2"
    },
    {
      "bufferView": 0,
      "byteOffset": 226632,
      "componentType": 5125,
      "count": 16488,
      "type": "SCALAR"
    },
    {
      "bufferView": 2,
      "byteOffset": 874992,
      "componentType": 5126,
      "count": 9826,
      "max": [
        434.18798828125,
        685.698974609375,
        131.17999267578125
      ],
      "min": [
        18.97760009765625,
        313.78900146484375,
        49.53260040283203
      ],
      "type": "VEC3"
    },
    {
      "bufferView": 2,
      "byteOffset": 992904,
      "componentType": 5126,
      "count": 9826,
      "max": [
        1.0,
        0.9984999895095825,
        1.0
      ],
      "min": [
        -1.0,
        -0.9984999895095825,
        -1.0
      ],
      "type": "VEC3"
    },
    {
      "bufferView": 1,
      "byteOffset": 291664,
      "componentType": 5126,
      "count": 9826,
      "max": [
        81.13330078125,
        82.27940368652344
      ],
      "min": [
        -74.34030151367188,
        -69.94020080566406
      ],
      "type": "VEC2"
    },
    {
      "bufferView": 0,
      "byteOffset": 292584,
      "componentType": 5125,
      "count": 18096,
      "type": "SCALAR"
    },
    {
      "bufferView": 2,
      "byteOffset": 1110816,
      "componentType": 5126,
      "count": 9657,
      "max": [
        355.19500732421875,
        538.552001953125,
        131.17999267578125
      ],
      "min": [
        18.97760009765625,
        457.4939880371094,
        107.47899627685547
      ],
      "type": "VEC3"
    },
    {
      "bufferView": 2,
      "byteOffset": 1226700,
      "componentType": 5126,
      "count": 9657,
      "max": [
        0.9999314546585083,
        0.9482197761535645,
        1.0
      ],
      "min": [
        -0.9999314546585083,
        -0.9482197761535645,
        -1.0
      ],
      "type": "VEC3"
    },
    {
      "bufferView": 1,
      "byteOffset": 370272,
      "componentType": 5126,
      "count": 9657,
      "max": [
        15.601200103759766,
        25.58099937438965
      ],
      "min": [
        -17.117300033569336,
        -6.171529769897461
      ],
      "type": "VEC2"
    },
    {
      "bufferView": 0,
      "byteOffset": 364968,
      "componentType": 5125,
      "count": 19620,
      "type": "SCALAR"
    },
    {
      "bufferView": 2,
      "byteOffset": 1342584,
      "componentType": 5126,
      "count": 7852,
      "max": [
        977.218017578125,
        994.6380004882813,
        232.77499389648438
      ],
      "min": [
        -87.08999633789063,
        4.850339889526367,
        49.35300064086914
      ],
      "type": "VEC3"
    },
    {
      "bufferView": 2,
      "byteOffset": 1436808,
      "componentType": 5126,
      "count": 7852,
      "max": [
        1.0,
        1.0,
        1.0
      ],
      "min": [
        -1.0,
        -1.0,
        -1.0
      ],
      "type": "VEC3"
    },
    {
      "bufferView": 1,
      "byteOffset": 447528,
      "componentType": 5126,
      "count": 7852,
      "max": [
        542.9409790039063,
        534.5469970703125
      ],
      "min": [
        -517.6890258789063,
        -507.52099609375
      ],
      "type": "VEC2"
    },
    {
      "bufferView": 0,
      "byteOffset": 443448,
      "componentType": 5125,
      "count": 15339,
      "type": "SCALAR"
    },
    {
      "bufferView": 2,
      "byteOffset": 1531032,
      "componentType": 5126,
      "count": 559,
      "max": [
        436.5509948730469,
        557.8560180664063,
        130.718994140625
      ],
      "min": [
        -83.41079711914063,
        453.1090087890625,
        56.15439987182617
      ],
      "type": "VEC3"
    },
    {
      "bufferView": 2,
      "byteOffset": 1537740,
      "componentType": 5126,
      "count": 559,
      "max": [
        1.0,
        1.0,
        1.0
      ],
      "min": [
        -1.0,
        -1.0,
        -0.8908590078353882
      ],
      "type": "VEC3"
    },
    {
      "bufferView": 1,
      "byteOffset": 510344,
      "componentType": 5126,
      "count": 559,
      "max": [
        164.7209930419922,
        143.42599487304688
      ],
      "min": [
        -164.7209930419922,
        -11.140800476074219
      ],
      "type": "VEC2"
    },
    {
      "bufferView": 0,
      "byteOffset": 504804,
      "componentType": 5125,
      "count": 987,
      "type": "SCALAR"
    },
    {
      "bufferView": 2,
      "byteOffset": 1544448,
      "componentType": 5126,
      "count": 88,
      "max": [
        -71.18450164794922,
        523.35302734375,
        111.69200134277344
      ],
      "min": [
        -83.7042007446289,
        477.0539855957031,
        107.47899627685547
      ],
      "type": "VEC3"
    },
    {
      "bufferView": 2,
      "byteOffset": 1545504,
      "componentType": 5126,
      "count": 88,
      "max": [
        0.31890910863876343,
        1.0,
        0.9477853775024414
      ],
      "min": [
        -1.0,
        -1.0,
        -1.0
      ],
      "type": "VEC3"
    },
    {
      "bufferView": 1,
      "byteOffset": 514816,
      "componentType": 5126,
      "count": 88,
      "max": [
        480.71600341796875,
        480.71600341796875
      ],
      "min": [
        -480.71600341796875,
        -44.872798919677734
      ],
      "type": "VEC2"
    },
    {
      "bufferView": 0,
      "byteOffset": 508752,
      "componentType": 5125,
      "count": 168,
      "type": "SCALAR"
    },
    {
      "bufferView": 2,
      "byteOffset": 1546560,
      "componentType": 5126,
      "count": 672,
      "max": [
        459.6050109863281,
        568.77001953125,
        52.604801177978516
      ],
      "min": [
        -22.060199737548828,
        442.19500732421875,
        36.918399810791016
      ],
      "type": "VEC3"
    },
    {
      "bufferView": 2,
      "byteOffset": 1554624,
      "componentType": 5126,
      "count": 672,
      "max": [
        4.868229961269314e-15,
        1.0,
        1.4107399805090258e-14
      ],
      "min": [
        1.7430300104531748e-15,
        -1.0,
        -1.5278600731588252e-14
      ],
      "type": "VEC3"
    },
    {
      "bufferView": 1,
      "byteOffset": 515520,
      "componentType": 5126,
      "count": 672,
      "max": [
        5.097569942474365,
        5.097569942474365
      ],
      "min": [
        -5.097569942474365,
        1.9103000164031982
      ],
      "type": "VEC2"
    },
    {
      "bufferView": 0,
      "byteOffset": 509424,
      "componentType": 5125,
      "count": 1848,
      "type": "SCALAR"
    }
  ],
  "asset": {
    "extras": {
      "author": "Henry Chi (https://sketchfab.com/henrychi)",
      "license": "CC-BY-4.0 (http://creativecommons.org/licenses/by/4.0/)",
      "source": "https://sketchfab.com/3d-models/airplane-with-interior-d8f3d43e5e2f4b86afcce58d663aacb1",
      "title": "airplane with interior"
    },
    "generator": "Sketchfab-14.56.0",
    "version": "2.0"
  },
  "bufferViews": [
    {
      "buffer": 0,
      "byteLength": 516816,
      "name": "floatBufferViews",
      "target": 34963
    },
    {
      "buffer": 0,
      "byteLength": 520896,
      "byteOffset": 516816,
      "byteStride": 8,
      "name": "floatBufferViews",
      "target": 34962
    },
    {
      "buffer": 0,
      "byteLength": 1562688,
      "byteOffset": 1037712,
      "byteStride": 12,
      "name": "floatBufferViews",
      "target": 34962
    }
  ],
  "buffers": [
    {
      "byteLength": 2600400,
      "uri": "scene.bin"
    }
  ],
  "images": [
    {
      "uri": "textures/Carpet_Berber_Pattern_Gray_baseColor.jpeg"
    },
    {
      "uri": "textures/Concrete_Scored_Jointless_baseColor.jpeg"
    },
    {
      "uri": "textures/Metal_Corrogated_Shiny_baseColor.jpeg"
    },
    {
      "uri": "textures/Metal_Steel_Textured_White_baseColor.jpeg"
    }
  ],
  "materials": [
    {
      "doubleSided": true,
      "name": "Carpet_Berber_Pattern_Gray",
      "pbrMetallicRoughness": {
        "baseColorTexture": {
          "index": 0
        },
        "metallicFactor": 0.0
      }
    },
    {
      "doubleSided": true,
      "name": "Color_000",
      "pbrMetallicRoughness": {
        "metallicFactor": 0.0
      }
    },
    {
      "doubleSided": true,
      "name": "Color_009",
      "pbrMetallicRoughness": {
        "baseColorFactor": [
          0.0,
          0.0,
          0.0,
          1.0
        ],
        "metallicFactor": 0.0
      }
    },
    {
      "doubleSided": true,
      "name": "Color_A01",
      "pbrMetallicRoughness": {
        "baseColorFactor": [
          1.0,
          0.0,
          0.0,
          1.0
        ],
        "metallicFactor": 0.0
      }
    },
    {
      "doubleSided": true,
      "name": "Color_H05",
      "pbrMetallicRoughness": {
        "baseColorFactor": [
          0.8,
          1.0,
          1.0,
          1.0
        ],
        "metallicFactor": 0.0
      }
    },
    {
      "doubleSided": true,
      "name": "Color_I11",
      "pbrMetallicRoughness": {
        "baseColorFactor": [
          0.0,
          0.0,
          0.6,
          1.0
        ],
        "metallicFactor": 0.0
      }
    },
    {
      "doubleSided": true,
      "name": "Concrete_Scored_Jointless",
      "pbrMetallicRoughness": {
        "baseColorTexture": {
          "index": 1
        },
        "metallicFactor": 0.0
      }
    },
    {
      "doubleSided": true,
      "name": "FrontColor",
      "pbrMetallicRoughness": {
        "metallicFactor": 0.0
      }
    },
    {
      "doubleSided": true,
      "name": "Metal_Corrogated_Shiny",
      "pbrMetallicRoughness": {
        "baseColorTexture": {
          "index": 2
        },
        "metallicFactor": 0.0
      }
    },
    {
      "doubleSided": true,
      "name": "Metal_Steel_Textured_White",
      "pbrMetallicRoughness": {
        "baseColorTexture": {
          "index": 3
        },
        "metallicFactor": 0.0
      }
    },
    {
      "alphaMode": "BLEND",
      "doubleSided": true,
      "name": "Translucent_Glass_Green_Dark",
      "pbrMetallicRoughness": {
        "baseColorFactor": [
          0.243137,
          0.356863,
          0.019608,
          0.5
        ],
        "metallicFactor": 0.0
      }
    },
    {
      "doubleSided": true,
      "name": "LightGray",
      "pbrMetallicRoughness": {
        "baseColorFactor": [
          0.662745,
          0.662745,
          0.662745,
          1.0
        ],
        "metallicFactor": 0.0
      }
    }
  ],
  "meshes": [
    {
      "name": "Object_0",
      "primitives": [
        {
          "attributes": {
            "NORMAL": 1,
            "POSITION": 0,
            "TEXCOORD_0": 2
          },
          "indices": 3,
          "material": 6,
          "mode": 4
        }
      ]
    },
    {
      "name": "Object_1",
      "primitives": [
        {
          "attributes": {
            "NORMAL": 5,
            "POSITION": 4,
            "TEXCOORD_0": 6
          },
          "indices": 7,
          "material": 10,
          "mode": 4
        }
      ]
    },
    {
      "name": "Object_2",
      "primitives": [
        {
          "attributes": {
            "NORMAL": 9,
            "POSITION": 8,
            "TEXCOORD_0": 10
          },
          "indices": 11,
          "material": 0,
          "mode": 4
        }
      ]
    },
    {
      "name": "Object_3",
      "primitives": [
        {
          "attributes": {
            "NORMAL": 13,
            "POSITION": 12,
            "TEXCOORD_0": 14
          },
          "indices": 15,
          "material": 1,
          "mode": 4
        }
      ]
    },
    {
      "name": "Object_4",
      "primitives": [
        {
          "attributes": {
            "NORMAL": 17,
            "POSITION": 16,
            "TEXCOORD_0": 18
          },
          "indices": 19,
          "material": 2,
          "mode": 4
        }
      ]
    },
    {
      "name": "Object_5",
      "primitives": [
        {
          "attributes": {
            "NORMAL": 21,
            "POSITION": 20,
            "TEXCOORD_0": 22
          },
          "indices": 23,
          "material": 3,
          "mode": 4
        }
      ]
    },
    {
      "name": "Object_6",
      "primitives": [
        {
          "attributes": {
            "NORMAL": 25,
            "POSITION": 24,
            "TEXCOORD_0": 26
          },
          "indices": 27,
          "material": 4,
          "mode": 4
        }
      ]
    },
    {
      "name": "Object_7",
      "primitives": [
        {
          "attributes": {
            "NORMAL": 29,
            "POSITION": 28,
            "TEXCOORD_0": 30
          },
          "indices": 31,
          "material": 5,
          "mode": 4
        }
      ]
    },
    {
      "name": "Object_8",
      "primitives": [
        {
          "attributes": {
            "NORMAL": 33,
            "POSITION": 32,
            "TEXCOORD_0": 34
          },
          "indices": 35,
          "material": 7,
          "mode": 4
        }
      ]
    },
    {
      "name": "Object_9",
      "primitives": [
        {
          "attributes": {
            "NORMAL": 37,
            "POSITION": 36,
            "TEXCOORD_0": 38
          },
          "indices": 39,
          "material": 7,
          "mode": 4
        }
      ]
    },
    {
      "name": "Object_10",
      "primitives": [
        {
          "attributes": {
            "NORMAL": 41,
            "POSITION": 40,
            "TEXCOORD_0": 42
          },
          "indices": 43,
          "material": 7,
          "mode": 4
        }
      ]
    },
    {
      "name": "Object_11",
      "primitives": [
        {
          "attributes": {
            "NORMAL": 45,
            "POSITION": 44,
            "TEXCOORD_0": 46
          },
          "indices": 47,
          "material": 8,
          "mode": 4
        }
      ]
    },
    {
      "name": "Object_12",
      "primitives": [
        {
          "attributes": {
            "NORMAL": 49,
            "POSITION": 48,
            "TEXCOORD_0": 50
          },
          "indices": 51,
          "material": 9,
          "mode": 4
        }
      ]
    },
    {
      "name": "Object_13",
      "primitives": [
        {
          "attributes": {
            "NORMAL": 53,
            "POSITION": 52,
            "TEXCOORD_0": 54
          },
          "indices": 55,
          "material": 11,
          "mode": 4
        }
      ]
    }
  ],
  "nodes": [
    {
      "children": [
        1
      ],
      "matrix": [
        1.0,
        0.0,
        0.0,
        0.0,
        0.0,
        2.220446049250313e-16,
        -1.0,
        0.0,
        0.0,
        1.0,
        2.220446049250313e-16,
        0.0,
        0.0,
        0.0,
        0.0,
        1.0
      ],
      "name": "Sketchfab_model"
    },
    {
      "children": [
        2,
        3,
        4,
        5,
        6,
        7,
        8,
        9,
        10,
        11,
        12,
        13,
        14,
        15
      ],
      "name": "8c7d65d9-e2d5-4bd8-929e-c13ba2c6afe0.obj.cleaner.materialmerger.gles"
    },
    {
      "mesh": 0,
      "name": "Object_2"
    },
    {
      "mesh": 1,
      "name": "Object_3"
    },
    {
      "mesh": 2,
      "name": "Object_4"
    },
    {
      "mesh": 3,
      "name": "Object_5"
    },
    {
      "mesh": 4,
      "name": "Object_6"
    },
    {
      "mesh": 5,
      "name": "Object_7"
    },
    {
      "mesh": 6,
      "name": "Object_8"
    },
    {
      "mesh": 7,
      "name": "Object_9"
    },
    {
      "mesh": 8,
      "name": "Object_10"
    },
    {
      "mesh": 9,
      "name": "Object_11"
    },
    {
      "mesh": 10,
      "name": "Object_12"
    },
    {
      "mesh": 11,
      "name": "Object_13"
    },
    {
      "mesh": 12,
      "name": "Object_14"
    },
    {
      "mesh": 13,
      "name": "Object_15"
    }
  ],
  "samplers": [
    {
      "magFilter": 9729,
      "minFilter": 9987,
      "wrapS": 10497,
      "wrapT": 10497
    }
  ],
  "scene": 0,
  "scenes": [
    {
      "name": "Sketchfab_Scene",
      "nodes": [
        0
      ]
    }
  ],
  "textures": [
    {
      "sampler": 0,
      "source": 0
    },
    {
      "sampler": 0,
      "source": 1
    },
    {
      "sampler": 0,
      "source": 2
    },
    {
      "sampler": 0,
      "source": 3
    }
  ]
}
